<?xml version="1.0" encoding="UTF-8"?>
<svg xmlns="http://www.w3.org/2000/svg" viewBox="400 530 759 513" fill="#fbfaf9" stroke="#fbfaf9" stroke-width="4.5" stroke-linejoin="round">
  <path d="M540,1003L538,1001L536,1002L536,1005Z M1046,972L1044,973L1040,1005L1042,1005L1042,999L1045,978L1046,977Z M957,972L957,974L977,975L951,1003L951,1005L978,1004L954,1003L955,1001L965,990L976,979L981,972Z M734,972L732,973L728,1005L730,1005L730,1000L731,999L731,992L733,978L734,977Z M1124,971L1118,972L1114,974L1110,979L1109,972L1108,974L1107,988L1105,996L1104,1005L1106,1005L1106,1000L1107,999L1108,987L1111,979L1115,975L1119,973L1125,973Z M1083,972L1077,971L1069,973L1066,975L1061,981L1059,986L1058,992L1060,999L1062,1002L1065,1004L1070,1006L1076,1006L1085,1003L1087,999L1085,1001L1078,1004L1070,1004L1067,1003L1061,997L1060,994L1061,989L1091,989L1092,987L1091,980L1088,976L1088,975Z M1061,985L1063,981L1069,975L1074,973L1080,973L1083,974L1089,980L1090,983L1089,988L1061,987Z M1028,972L1028,974L1025,979L1021,974L1017,972L1012,971L1004,973L998,978L995,983L993,992L994,997L996,1001L1001,1005L1009,1006L1017,1003L1022,998L1023,1004L1022,1008L1019,1013L1017,1015L1011,1018L998,1018L995,1017L992,1018L1000,1020L1009,1020L1017,1017L1022,1012L1025,1003L1027,982L1028,981L1028,975L1029,974Z M1008,973L1016,973L1022,977L1025,983L1025,988L1022,996L1018,1001L1012,1004L1004,1004L1000,1002L997,999L995,994L995,989L998,981L1004,975Z M912,975L909,978L905,986L905,997L908,1001L908,1002L913,1005L916,1006L920,1006L924,1005L935,999L935,1005L936,1003L936,997L937,996L938,983L939,982L939,976L940,975L939,972L937,980L931,973L924,971L918,972Z M927,973L931,975L934,978L936,982L936,989L935,993L932,998L926,1003L923,1004L915,1004L913,1003L908,998L906,993L906,989L908,983L915,975L920,973Z M792,975L789,978L785,986L785,997L788,1002L793,1005L796,1006L800,1006L804,1005L815,999L815,1005L816,1003L816,997L817,996L818,983L819,982L819,976L820,975L819,972L817,980L811,973L804,971L798,972Z M807,973L811,975L814,978L816,982L816,989L815,993L812,998L806,1003L803,1004L795,1004L793,1003L788,998L786,993L786,989L788,983L795,975L800,973Z M707,972L702,971L697,972L693,974L688,979L687,972L686,974L685,988L683,996L682,1005L684,1005L684,1000L687,983L688,981L695,974L698,973L704,973L706,974L711,979L712,982L712,988L709,1005L711,1005L711,1001L712,1000L714,982L712,976Z M661,972L655,971L647,973L644,975L639,981L637,986L636,992L637,997L641,1003L648,1006L652,1006L657,1005L661,1003L666,998L669,992L670,983L666,975Z M661,974L666,978L668,983L668,989L665,996L663,998L663,999L658,1003L655,1004L647,1004L641,1000L638,994L638,989L641,981L647,975L652,973L658,973Z M478,972L472,971L464,973L461,975L456,981L454,986L453,992L454,997L458,1003L466,1006L471,1006L480,1003L482,999L480,1001L473,1004L465,1004L462,1003L458,1000L455,994L456,989L486,989L487,986L486,980L483,975Z M456,985L458,981L464,975L469,973L475,973L478,974L482,977L485,983L484,988L456,987Z M863,961L861,962L861,967L860,968L858,989L856,996L855,1005L878,1005L885,1002L888,999L890,995L890,989L889,987L886,984L882,982L886,980L889,977L891,973L891,968L890,966L885,962Z M858,1002L859,989L861,983L876,983L882,984L884,985L888,989L888,995L887,997L883,1001L879,1003Z M861,981L862,968L864,963L880,963L884,964L887,966L889,970L889,973L887,977L884,980L880,982Z M591,961L588,967L582,984L582,987L575,1005L578,1004L581,993L583,990L589,971L592,971L593,978L597,992L599,996L599,998L601,997L602,994L604,992L612,976L614,974L615,971L618,971L619,984L619,998L620,999L620,1005L622,1005L620,967L619,966L618,961L615,968L605,986L603,988L602,991L599,991L598,984L594,973L593,966Z M1047,959L1046,962L1048,962Z M735,959L734,962L736,962Z M506,957L506,959L505,960L505,966L504,967L499,1005L501,1005L502,995L510,988L512,990L520,1003L522,1005L524,1005L522,1003L512,987L512,985L526,972L524,972L503,989L504,979L508,957Z M753,957L752,960L752,966L749,981L746,1005L748,1005L749,995L757,988L760,991L767,1003L769,1005L771,1005L769,1003L759,987L759,985L773,972L771,972L751,991L750,986L751,985L751,979L752,978L755,957Z M441,956L434,1005L436,1005L436,1001L437,1000L443,957Z M554,553L554,556L567,556L569,558L569,904L567,906L554,906L554,908L603,908L603,906L590,906L588,904L589,570L592,574L592,577L600,597L608,620L608,623L615,640L622,660L622,663L629,680L636,703L645,726L652,749L661,772L661,775L669,795L681,830L681,834L663,880L674,908L676,908L680,899L697,852L700,847L715,805L736,750L742,737L778,640L784,627L801,580L806,569L808,904L805,906L793,906L793,908L826,908L827,909L903,909L935,905L952,900L965,894L974,888L986,876L989,872L996,860L1001,847L1004,833L1005,824L1005,800L1003,786L999,772L993,759L984,746L974,736L962,728L952,723L938,718L921,714L909,713L907,711L910,709L915,708L929,701L937,696L943,691L949,685L957,674L962,664L965,655L967,643L967,616L964,602L960,592L955,584L949,577L942,571L936,567L924,561L912,557L897,554L888,553L788,553L786,557L784,565L778,578L768,607L762,620L752,649L746,662L744,670L736,691L730,704L728,712L686,822L684,825L681,821L679,813L655,744L648,727L641,704L611,621L604,598L597,581L597,578L592,567L592,564L588,553Z M812,556L879,556L893,558L901,560L909,563L921,570L932,581L935,585L942,599L945,609L947,621L947,645L943,664L941,670L935,681L925,692L914,700L903,706L886,713L866,720L852,727L841,734L835,739L828,746L827,748L827,754L831,748L840,739L853,730L871,722L897,714L921,719L935,724L951,733L957,738L966,748L972,757L979,772L984,791L986,808L986,819L983,840L979,853L975,862L966,876L954,888L950,891L935,898L919,902L895,905L863,906L813,906L811,904Z" fill-rule="evenodd"/>
</svg>