<?xml version="1.0" encoding="utf-8"?>
<!-- Generator: Adobe Illustrator 26.0.3, SVG Export Plug-In . SVG Version: 6.00 Build 0)  -->
<svg version="1.0" id="katman_1" xmlns="http://www.w3.org/2000/svg" xmlns:xlink="http://www.w3.org/1999/xlink" x="0px" y="0px"
	 viewBox="0 0 600 450" style="enable-background:new 0 0 600 450;" xml:space="preserve">
<style type="text/css">
	.st0{fill:#39B49E;}
</style>
<path class="st0" d="M516.7,216.2h26.2v5.2l-17.1,24.8h17.7v7h-27.7v-5.1l17.1-24.9h-16.1V216.2L516.7,216.2z M491.5,216.2h7.3
	l0.6,6h0.1c1.9-2.7,6.4-6.2,11.7-6.5v7.8c-7.7,1.5-11.3,6.6-11.3,11.3v18.5h-8.4L491.5,216.2L491.5,216.2L491.5,216.2z M458.3,215.5
	c3.7-0.3,7.7-0.4,11.5-0.4c9.1,0,14.5,3.5,14.5,13.4v24.7h-7.6l-0.4-3.7h-0.1c-2.6,2.8-6.4,4.4-11.2,4.4c-6.4,0-11.5-4.2-11.5-12.4
	c0-7.7,6.4-14.8,22.4-11.4v-2.2c0-4.4-2.6-5.6-7.7-5.6c-3.1,0-5.8,0.2-9.8,0.6L458.3,215.5z M475.8,236c-6.8-1.7-13.5,0.4-13.5,5.6
	c0,3.5,2.3,5.5,5.7,5.4c2.7-0.1,5.7-1.3,7.8-3.2L475.8,236L475.8,236L475.8,236z M429.7,239.9v13.4h-8.4v-50.8l8.4-1v29.5
	c4.7-4,9.1-9.2,12.3-14.7h9c-3.1,6.1-6.9,11.4-11.5,15.9l12.5,21.1h-9.5l-9.3-15.7C432,238.4,430.8,239.2,429.7,239.9L429.7,239.9
	L429.7,239.9z M382.4,234.8v-0.2c0-11.4,5.5-19.6,17-19.6c10.6,0,15.6,6.1,15.6,19.1c0,1.4-0.1,3.2-0.2,4.6h-23.5
	c0.6,5.2,3.6,8.3,9.9,8.3c3.9,0,7.7-0.4,11.1-0.8v7.1c-3.9,0.6-7.1,1-11.3,1C388.8,254.3,382.4,248.2,382.4,234.8L382.4,234.8
	L382.4,234.8z M391.1,232.5h15.3c0-5.8-1.5-10.4-7.2-10.4C393.2,222.1,391.3,227,391.1,232.5L391.1,232.5L391.1,232.5z M352.9,201.4
	h9.2v43.4h18.2v8.4h-27.4V201.4z M315.4,216.2h8.9c1.5,7,5.3,20.7,7.3,27.5h0.2c2-6.9,5.8-20.6,7.3-27.5h8.9
	c-2.7,10.5-9.4,30.9-12.1,37s-6.4,16.4-20.3,14.6v-6.6c6.4,0.4,9.9-2.1,12-6.8C324.3,246.6,318,226.7,315.4,216.2L315.4,216.2
	L315.4,216.2z M278.5,216.2h7.3c0,0,0.3,3.7,0.5,5h0.1c2-3.2,6.3-6.1,11.5-6.1c8.7,0,13.1,4.6,13.1,14.1v24h-8.4v-22.3
	c0-6-2.3-8.4-6.9-8.1c-4.1,0.3-8.7,5-8.7,10.9v19.5h-8.4L278.5,216.2L278.5,216.2L278.5,216.2z M245.3,215.5
	c3.7-0.3,7.6-0.4,11.5-0.4c9.1,0,14.5,3.5,14.5,13.4v24.7h-7.6l-0.4-3.7h-0.1c-2.6,2.8-6.4,4.4-11.2,4.4c-6.4,0-11.5-4.2-11.5-12.4
	c0-7.7,6.4-14.8,22.4-11.4v-2.2c0-4.4-2.6-5.6-7.7-5.6c-3.1,0-5.8,0.2-9.8,0.6C245.3,222.9,245.3,215.5,245.3,215.5z M262.8,236
	c-6.8-1.7-13.5,0.4-13.5,5.6c0,3.5,2.3,5.5,5.7,5.4c2.7-0.1,5.7-1.3,7.8-3.2V236L262.8,236z M202.5,216.2h7.3c0,0,0.3,3.7,0.5,5h0.1
	c2-3.2,6.3-6.1,11.5-6.1c8.7,0,13.1,4.6,13.1,14.1v24h-8.4v-22.3c0-6-2.3-8.4-6.9-8.1c-4.1,0.3-8.7,5-8.7,10.9v19.5h-8.4
	L202.5,216.2L202.5,216.2L202.5,216.2z M161.8,201.4h33.3v7l-23,36.4h23.4v8.4h-35v-7.2l23-36.3h-21.7V201.4L161.8,201.4
	L161.8,201.4z M99.9,250.1c1.9-4.6,7.1-11,12.5-14.3l11.9,19.7l-12.2,8.8L99.9,250.1C99.9,250.1,99.9,250.1,99.9,250.1z M82.4,264.3
	l-16.8-10.8c12.7-23.7,36.4-40.6,64.3-43.8l4.7,14.4C111.6,228.7,92.4,243.8,82.4,264.3L82.4,264.3L82.4,264.3z M86,215.5l2.1-25.2
	h15.1l1.9,22.8c-8.7,3-13.7,5.3-19.6,8.9c-4.3,2.6-8.2,5.7-11.7,9.3l-17-7.2l4.6-14.3L86,215.5z"/>
</svg>
